<?xml version="1.0" encoding="UTF-8"?>
<svg id="Layer_2" data-name="Layer 2" xmlns="http://www.w3.org/2000/svg" viewBox="0 0 281.69 278.26">
  <defs>
    <style>
      .cls-1 {
        fill: #f27f2d;
      }

      .cls-2 {
        fill: #f37f2f;
      }

      .cls-3 {
        fill: #f2aa79;
      }
    </style>
  </defs>
  <g id="Layer_1-2" data-name="Layer 1">
    <path class="cls-2" d="M149.73,1.82c2.38-.16,5.79-.27,10.63-.31,2.85,.14,6.28,.54,10.08,1.49,5.34,1.34,9.62,3.32,12.74,5.07l.15,.14c2.63,1.57,6.25,3.91,10.26,7.16,5.72,4.64,16.32,13.45,22.32,28.34,1.2,2.97,2.78,6.97,3.49,12.5,.61,4.75,.33,9.08-.23,17.76-.47,7.18-.83,8.2-.45,11.57,.31,2.75,.7,7.22,3.38,11.57,2.04,3.3,3.77,4.02,10.26,10.28,5.62,5.42,4.29,4.84,7.67,7.83,6.66,5.88,10.13,6.6,12.33,11.6,.41,.94,.64,1.71,.72,2.03,.14,.53,1.12,4.45-.43,8.09-1.01,2.38-1.92,1.87-5.19,5.84-1.86,2.25-3.17,3.86-4.06,6.43-.31,.88-1.12,3.49-.79,6.89,.18,1.83,.37,3.89,1.69,5.84,2.04,3.02,4.52,2.42,6.43,5.72,.45,.78,1.17,2.07,1.07,3.74-.17,2.71-2.41,4.59-2.99,5.08-1.75,1.47-2.56,1.04-3.99,2.67-.51,.59-1.67,1.91-1.43,3.43,.15,.93,.76,1.53,1.28,2.02,2.02,1.93,3.76,1.09,4.96,2.72,.76,1.03,.75,2.3,.75,3.19,0,.6-.09,2.17-1.05,3.66-.78,1.2-1.57,1.47-2.41,2.18-2.43,2.06-2.71,5.7-2.86,7.63-.27,3.5,.8,4.9,1.35,8.1,1.29,7.53-2.21,14.05-2.86,15.27-3.27,6.08-8.49,8.9-10.53,9.97-7.31,3.83-16.12,3.46-33.76,2.72-.84-.03-3.22-.14-6.38,.16,0,0-2.39,.22-4.82,.72-2.62,.53-9.01,1.8-15.04,5.61-10.89,6.89-15.37,17.27-16.85,21.19l-2.56,2.65c-2,1.25-4.95,2.86-8.72,4.13-2.77,.93-5.1,1.37-9.17,1.95-6.67,.94-10.58,1.5-16.24,1.72-9.08,.35-15.93-.45-21.65-1.08-10-1.11-18.97-2.95-26.75-5.03l9.66,1.05c4.56,.41,9.82,.71,16.16,.48,5.71-.21,9.66-.75,16.38-1.67,4.11-.56,6.45-.99,9.25-1.9,3.81-1.23,6.78-2.8,8.8-4.02l2.58-2.57c1.49-3.81,6.01-13.9,17-20.6,6.08-3.71,12.53-4.94,15.17-5.46,2.45-.48,4.87-.7,4.87-.7,3.19-.29,5.59-.19,6.43-.15,17.79,.71,26.68,1.07,34.06-2.65,2.06-1.04,7.32-3.78,10.62-9.69,.66-1.18,4.19-7.52,2.89-14.84-.55-3.11-1.64-4.47-1.36-7.87,.15-1.88,.44-5.42,2.88-7.42,.84-.69,1.64-.95,2.43-2.12,.98-1.45,1.06-2.98,1.06-3.56,0-.87,.01-2.1-.76-3.1-1.22-1.59-2.97-.78-5.01-2.65-.52-.48-1.14-1.06-1.29-1.97-.24-1.48,.92-2.76,1.44-3.33,1.44-1.59,2.26-1.16,4.02-2.59,.59-.48,2.85-2.31,3.02-4.94,.11-1.62-.62-2.87-1.08-3.63-1.93-3.21-4.42-2.62-6.48-5.56-1.33-1.89-1.53-3.9-1.7-5.68-.33-3.31,.49-5.84,.8-6.7,.9-2.5,2.23-4.06,4.1-6.25,3.3-3.86,4.22-3.36,5.24-5.68,1.56-3.54,.57-7.35,.43-7.87-.09-.31-.32-1.07-.73-1.97-2.21-4.86-5.72-5.56-12.44-11.28-3.41-2.9-2.07-2.34-7.73-7.61-6.55-6.08-8.3-6.78-10.35-9.99-2.71-4.23-3.1-8.57-3.41-11.24-.38-3.27,0-4.26,.46-11.24,.57-8.43,.85-12.65,.23-17.26-.72-5.38-2.31-9.26-3.52-12.15-6.05-14.47-16.75-23.04-22.52-27.55-2.68-2.1-5.19-3.81-7.35-5.16-1.79-1.61-4.55-3.8-8.29-5.72-6.34-3.25-11.43-3.63-11.38-4.42,.02-.27,.61-.54,2.46-.77l2.61-.24h0Z"/>
    <path class="cls-2" d="M132.67,276.71c-4.94,.69-8.42,1.14-12.8,1.36"/>
    <path class="cls-2" d="M70.42,272.07c-.08-.02-.16-.04-.23-.06l9.66,1.05c4.56,.41,9.82,.71,16.16,.48,5.71-.21,9.66-.75,16.38-1.67,4.11-.56,6.45-.99,9.25-1.9,3.81-1.23,6.78-2.8,8.8-4.02l2.58-2.57c1.49-3.81,6.01-13.9,17-20.6,6.08-3.71,12.53-4.94,15.17-5.46,2.45-.48,4.87-.7,4.87-.7,3.19-.29,5.59-.19,6.43-.15,17.79,.71,26.68,1.07,34.06-2.65,2.06-1.04,7.32-3.78,10.62-9.69,.66-1.18,4.19-7.52,2.89-14.84-.55-3.11-1.64-4.47-1.36-7.87,.15-1.88,.44-5.42,2.88-7.42,.84-.69,1.64-.95,2.43-2.12,.98-1.45,1.06-2.98,1.06-3.56,0-.87,.01-2.1-.76-3.1-1.22-1.59-2.97-.78-5.01-2.65-.52-.48-1.14-1.06-1.29-1.97-.24-1.48,.92-2.76,1.44-3.33,1.44-1.59,2.26-1.16,4.02-2.59,.59-.48,2.85-2.31,3.02-4.94,.11-1.62-.62-2.87-1.08-3.63-1.93-3.21-4.42-2.62-6.48-5.56-1.33-1.89-1.53-3.9-1.7-5.68-.33-3.31,.49-5.84,.8-6.7,.9-2.5,2.23-4.06,4.1-6.25,3.3-3.86,4.22-3.36,5.24-5.68,1.56-3.54,.57-7.35,.43-7.87-.09-.31-.32-1.07-.73-1.97-2.21-4.86-5.72-5.56-12.44-11.28-3.41-2.9-2.07-2.34-7.73-7.61-6.55-6.08-8.3-6.78-10.35-9.99-2.71-4.23-3.1-8.57-3.41-11.24-.38-3.27,0-4.26,.46-11.24,.57-8.43,.85-12.65,.23-17.26-.72-5.38-2.31-9.26-3.52-12.15-6.05-14.47-16.75-23.04-22.52-27.55-2.68-2.1-5.19-3.81-7.35-5.16-1.79-1.61-4.55-3.8-8.29-5.72-6.34-3.25-11.43-3.63-11.38-4.42,.02-.27,.61-.54,2.46-.77l2.6-.24c2.38-.16,5.79-.27,10.63-.31,2.85,.14,6.28,.54,10.08,1.49,5.34,1.34,9.62,3.32,12.74,5.07l.15,.14c2.63,1.57,6.25,3.91,10.26,7.16,5.72,4.64,16.32,13.45,22.32,28.34,1.2,2.97,2.78,6.97,3.49,12.5,.61,4.75,.33,9.08-.23,17.76-.47,7.18-.83,8.2-.45,11.57,.31,2.75,.7,7.22,3.38,11.57,2.04,3.3,3.77,4.02,10.26,10.28,5.62,5.42,4.29,4.84,7.67,7.83,6.66,5.88,10.13,6.6,12.33,11.6,.41,.94,.64,1.71,.72,2.03,.14,.53,1.12,4.45-.43,8.09-1.01,2.38-1.92,1.87-5.19,5.84-1.86,2.25-3.17,3.86-4.06,6.43-.31,.88-1.12,3.49-.79,6.89,.18,1.83,.37,3.89,1.69,5.84,2.04,3.02,4.52,2.42,6.43,5.72,.45,.78,1.17,2.07,1.07,3.74-.17,2.71-2.41,4.59-2.99,5.08-1.75,1.47-2.56,1.04-3.99,2.67-.51,.59-1.67,1.91-1.43,3.43,.15,.93,.76,1.53,1.28,2.02,2.02,1.93,3.76,1.09,4.96,2.72,.76,1.03,.75,2.3,.75,3.19,0,.6-.09,2.17-1.05,3.66-.78,1.2-1.57,1.47-2.41,2.18-2.43,2.06-2.71,5.7-2.86,7.63-.27,3.5,.8,4.9,1.35,8.1,1.29,7.53-2.21,14.05-2.86,15.27-3.27,6.08-8.49,8.9-10.53,9.97-7.31,3.83-16.12,3.46-33.76,2.72-.84-.03-3.22-.14-6.38,.16,0,0-2.39,.22-4.82,.72-2.62,.53-9.01,1.8-15.04,5.61-10.89,6.89-15.37,17.27-16.85,21.19l-2.56,2.65c-2,1.25-4.95,2.86-8.72,4.13-2.77,.93-5.1,1.37-9.17,1.95-.75,.11-1.46,.21-2.15,.3"/>
    <path class="cls-3" d="M133.37,276.6c.45-.06,.91-.13,1.39-.2,4.07-.58,6.4-1.02,9.17-1.95,3.78-1.27,6.72-2.88,8.72-4.13l2.56-2.65c1.47-3.92,5.96-14.3,16.84-21.18,6.03-3.81,12.42-5.07,15.04-5.61,2.43-.5,4.82-.72,4.82-.72,3.16-.3,5.54-.19,6.38-.15,3.38,.14,6.44,.27,9.23,.36l.65-.07c1.14,.06,2.32,.09,3.51,.09,6.88,0,13.09-.98,18.47-2.36l.57-.09c.45-.2,.89-.41,1.33-.64,2.04-1.07,7.26-3.89,10.53-9.97,.65-1.21,4.15-7.73,2.86-15.26-.55-3.2-1.62-4.59-1.35-8.1,.15-1.93,.43-5.57,2.86-7.63,.83-.71,1.62-.98,2.41-2.18,.97-1.49,1.05-3.06,1.05-3.66,0-.9,.01-2.16-.75-3.19-1.21-1.63-2.94-.8-4.96-2.73-.52-.5-1.13-1.09-1.28-2.02-.24-1.52,.91-2.84,1.43-3.43,1.43-1.63,2.24-1.2,3.98-2.67,.58-.49,2.82-2.37,2.99-5.08,.1-1.67-.62-2.96-1.07-3.74-1.91-3.31-4.39-2.7-6.43-5.72-1.32-1.95-1.52-4.01-1.69-5.84-.33-3.4,.48-6.01,.79-6.89,.89-2.57,2.21-4.17,4.06-6.42,3.27-3.97,4.18-3.46,5.19-5.84,1.54-3.64,.56-7.56,.42-8.09-.08-.32-.31-1.1-.72-2.03-2.2-5-5.67-5.72-12.33-11.6-3.38-2.98-2.05-2.41-7.67-7.83-6.49-6.26-8.22-6.98-10.26-10.28-2.68-4.35-3.07-8.81-3.38-11.56-.38-3.36,0-4.39,.45-11.56,.56-8.67,.84-13.01,.23-17.75-.72-5.53-2.3-9.52-3.49-12.5-6-14.89-16.61-23.7-22.33-28.34-4.01-3.25-7.63-5.6-10.26-7.16l-.15-.14c-3.12-1.75-7.41-3.74-12.75-5.07-3.8-.95-7.23-1.35-10.08-1.49-1.77,0-3.35,.04-4.76,.07l-5.76,.65,3.54-.74c5.45-.87,10-.82,13.26-.58,10.45,.76,18.32,4.29,24.32,7,3.92,1.77,7.41,3.69,10.45,5.59l.56,.43c3.25,2.18,6.65,4.66,10.11,7.5,1.63,1.34,3.18,2.67,4.65,4l.13,.11c6.52,4.69,15.11,12.05,20.7,23.18,1.41,2.81,3.28,6.59,4.25,11.88,.84,4.54,.68,8.72,.37,17.08-.26,6.92-.62,7.92-.09,11.13,.43,2.63,1.01,6.91,4.09,10.98,2.34,3.09,4.25,3.72,11.56,9.48,6.32,4.99,4.85,4.49,8.64,7.22,7.48,5.39,11.29,5.95,13.86,10.67,.48,.88,.76,1.62,.86,1.92,.17,.51,1.37,4.23-.18,7.79-1.02,2.33-2.03,1.87-5.46,5.82-1.95,2.24-3.33,3.83-4.21,6.34-.3,.86-1.1,3.4-.62,6.66,.26,1.75,.54,3.73,2.05,5.55,2.33,2.82,5.01,2.15,7.22,5.25,.52,.73,1.35,1.94,1.3,3.55-.09,2.61-2.47,4.51-3.09,5-1.86,1.48-2.76,1.1-4.26,2.72-.54,.59-1.76,1.9-1.44,3.35,.19,.89,.88,1.44,1.47,1.9,2.27,1.77,4.14,.9,5.51,2.42,.87,.96,.9,2.18,.93,3.04,.02,.57-.02,2.09-1.02,3.56-.81,1.19-1.67,1.48-2.55,2.19-2.58,2.07-2.76,5.58-2.85,7.45-.18,3.38,1.05,4.68,1.76,7.73,1.68,7.19-1.92,13.59-2.59,14.78-3.36,5.97-8.95,8.89-11.14,10-1.09,.55-2.22,1.03-3.4,1.43l-14.18,3.15c-10.78,3.69-19.28,4.52-25.14,4.56-4.54,.04-11.75-.35-20.73,2.6-2.57,.85-4.62,1.75-5.95,2.38l-.4,.29c-8.27,6.62-11.77,14.52-13.03,17.8l-2.7,2.65c-2.14,1.28-5.3,2.95-9.38,4.31-3,1-5.52,1.52-9.95,2.23-7.24,1.17-11.5,1.85-17.67,2.29-3.12,.22-6.01,.32-8.7,.34l-9.48,.03"/>
    <circle class="cls-2" cx="16.55" cy="108.73" r="16.55"/>
    <path class="cls-1" d="M18.33,107.8l39.39,79.74L14.78,109.66c-.53-.97-.18-2.18,.79-2.72,.97-.53,2.18-.18,2.72,.79,0,.02,.02,.05,.04,.07Z"/>
    <circle class="cls-2" cx="38.56" cy="33.46" r="13.5"/>
    <circle class="cls-2" cx="56.58" cy="182.36" r="13.5"/>
    <path class="cls-1" d="M57.32,180.43l61.08,26.63-62.56-22.91c-1.04-.38-1.57-1.53-1.19-2.57s1.53-1.57,2.57-1.19c.03,0,.07,.03,.1,.04h0Z"/>
    <path class="cls-1" d="M58.54,182.14l12.99,71.16-16.91-70.33c-.26-1.07,.4-2.15,1.48-2.41,1.07-.26,2.15,.4,2.41,1.48,.01,.03,.02,.07,.03,.1h0Z"/>
    <circle class="cls-2" cx="116.95" cy="206.99" r="8.68"/>
    <circle class="cls-2" cx="71.53" cy="249.19" r="8.68"/>
    <path class="cls-1" d="M55.61,180.73l52.07-34.17-49.77,37.44c-.88,.66-2.14,.49-2.8-.4-.66-.88-.49-2.14,.4-2.8,.03-.02,.07-.05,.1-.07Z"/>
    <circle class="cls-2" cx="103.29" cy="149.84" r="8.68" transform="translate(-53.5 242.25) rotate(-85.93)"/>
    <path class="cls-1" d="M40.48,34.01L16.55,110.28,36.63,32.91c.28-1.07,1.37-1.71,2.44-1.43s1.71,1.37,1.43,2.44c0,.02-.01,.06-.02,.09Z"/>
    <path class="cls-1" d="M39.19,30.9l88.34,31.35L37.93,34.69c-1.06-.32-1.65-1.44-1.32-2.5s1.44-1.65,2.5-1.32c.02,.01,.05,.02,.08,.03Z"/>
    <circle class="cls-2" cx="128.27" cy="62.35" r="8.68"/>
    <path class="cls-1" d="M40.14,31.57l51.73,69.55L36.98,34.03c-.7-.86-.57-2.12,.28-2.82,.86-.7,2.12-.57,2.82,.28,.02,.03,.04,.05,.06,.08Z"/>
    <circle class="cls-2" cx="91.73" cy="102.05" r="8.68"/>
    <path class="cls-1" d="M38.03,30.87L122.36,9.51,39.1,34.72c-1.06,.32-2.17-.28-2.49-1.33-.32-1.06,.28-2.17,1.33-2.49,.02-.01,.06-.02,.09-.03Z"/>
    <circle class="cls-2" cx="122.81" cy="8.68" r="8.68"/>
  </g>
</svg>